<svg id="visual" viewBox="0 0 900 600" width="900" height="600" xmlns="http://www.w3.org/2000/svg" xmlns:xlink="http://www.w3.org/1999/xlink" version="1.1"><rect x="0" y="0" width="900" height="600" fill="#001220"></rect><defs><linearGradient id="grad1_0" x1="33.3%" y1="0%" x2="100%" y2="100%"><stop offset="20%" stop-color="#001220" stop-opacity="1"></stop><stop offset="80%" stop-color="#001220" stop-opacity="1"></stop></linearGradient></defs><defs><linearGradient id="grad2_0" x1="0%" y1="0%" x2="66.7%" y2="100%"><stop offset="20%" stop-color="#001220" stop-opacity="1"></stop><stop offset="80%" stop-color="#001220" stop-opacity="1"></stop></linearGradient></defs><g transform="translate(900, 0)"><path d="M0 486.7C-57.6 469.6 -115.2 452.4 -179.5 433.3C-243.7 414.2 -314.6 393 -344.2 344.2C-373.7 295.4 -361.9 218.9 -378.8 156.9C-395.7 94.9 -441.2 47.5 -486.7 0L0 0Z" fill="#00f7ff"></path></g><g transform="translate(0, 600)"><path d="M0 -486.7C60 -474.7 120 -462.6 183.3 -442.5C246.6 -422.5 313.3 -394.4 344.2 -344.2C375.1 -294 370.2 -221.8 388 -160.7C405.8 -99.7 446.3 -49.8 486.7 0L0 0Z" fill="#00f7ff"></path></g></svg>